<svg width="21" height="21" viewBox="0 0 21 21" fill="none" xmlns="http://www.w3.org/2000/svg">
<path d="M20.303 8.62475C20.4305 9.29419 20.5 9.99411 20.5 10.7245C20.5 16.4376 16.5981 20.5 10.7047 20.5C9.36452 20.5004 8.03735 20.242 6.79907 19.7396C5.56079 19.2372 4.43567 18.5006 3.48799 17.572C2.54031 16.6433 1.78865 15.5407 1.27596 14.3273C0.763266 13.1139 0.499592 11.8133 0.5 10.5C0.499592 9.18667 0.763266 7.88613 1.27596 6.67269C1.78865 5.45926 2.54031 4.3567 3.48799 3.42804C4.43567 2.49937 5.56079 1.76279 6.79907 1.26039C8.03735 0.757984 9.36452 0.4996 10.7047 0.5C13.4601 0.5 15.7625 1.4935 17.529 3.10666L14.6523 5.92564V5.91853C13.5814 4.91893 12.2224 4.40593 10.7047 4.40593C7.33771 4.40593 4.60097 7.19342 4.60097 10.4939C4.60097 13.7934 7.33771 16.587 10.7047 16.587C13.7597 16.587 15.8392 14.8753 16.2663 12.5246H10.7047V8.62475H20.3041H20.303Z" fill="#412554"/>
</svg>
