<svg width="141" height="32" viewBox="0 0 141 32" fill="none" xmlns="http://www.w3.org/2000/svg">
<path d="M1.35298 31V9.18182H6.49503V31H1.35298ZM3.93821 6.08523C3.12382 6.08523 2.42306 5.81534 1.83594 5.27557C1.24882 4.72632 0.955256 4.06818 0.955256 3.30114C0.955256 2.52462 1.24882 1.86648 1.83594 1.3267C2.42306 0.777461 3.12382 0.50284 3.93821 0.50284C4.76207 0.50284 5.46283 0.777461 6.04048 1.3267C6.6276 1.86648 6.92116 2.52462 6.92116 3.30114C6.92116 4.06818 6.6276 4.72632 6.04048 5.27557C5.46283 5.81534 4.76207 6.08523 3.93821 6.08523ZM16.1247 18.2159V31H10.9827V9.18182H15.8974V12.8892H16.1531C16.655 11.6676 17.4552 10.697 18.5537 9.97727C19.6616 9.25758 21.03 8.89773 22.6588 8.89773C24.1645 8.89773 25.476 9.2197 26.5935 9.86364C27.7204 10.5076 28.5916 11.4403 29.2071 12.6619C29.8321 13.8835 30.1399 15.3655 30.1304 17.108V31H24.9883V17.9034C24.9883 16.4451 24.6096 15.304 23.852 14.4801C23.1039 13.6562 22.0669 13.2443 20.7412 13.2443C19.8416 13.2443 19.0414 13.4432 18.3406 13.8409C17.6493 14.2292 17.1048 14.7926 16.7071 15.5312C16.3188 16.2699 16.1247 17.1648 16.1247 18.2159Z" fill="#008B52"/>
<path d="M54.2736 11.1989C54.0368 10.4318 53.7101 9.74527 53.2935 9.1392C52.8863 8.52367 52.3938 7.99811 51.8162 7.5625C51.248 7.12689 50.5946 6.80019 49.856 6.58239C49.1173 6.35511 48.3124 6.24148 47.4412 6.24148C45.8787 6.24148 44.4866 6.63447 43.2651 7.42045C42.0435 8.20644 41.0823 9.36174 40.3815 10.8864C39.6902 12.4015 39.3446 14.2481 39.3446 16.4261C39.3446 18.6231 39.6902 20.4839 40.3815 22.0085C41.0728 23.5331 42.034 24.6932 43.2651 25.4886C44.4961 26.2746 45.926 26.6676 47.5548 26.6676C49.0321 26.6676 50.3105 26.3835 51.3901 25.8153C52.4791 25.2472 53.3171 24.4422 53.9043 23.4006C54.4914 22.3494 54.7849 21.1184 54.7849 19.7074L55.9781 19.892H48.0804V15.7727H59.8844V19.267C59.8844 21.7576 59.3541 23.9119 58.2935 25.7301C57.2329 27.5483 55.7745 28.9498 53.9185 29.9347C52.0624 30.91 49.9317 31.3977 47.5264 31.3977C44.8465 31.3977 42.4933 30.7964 40.4668 29.5938C38.4497 28.3816 36.873 26.6629 35.7366 24.4375C34.6098 22.2027 34.0463 19.5511 34.0463 16.483C34.0463 14.1345 34.3777 12.0369 35.0406 10.1903C35.713 8.34375 36.6505 6.77652 37.8531 5.48864C39.0558 4.19129 40.4668 3.20644 42.0861 2.53409C43.7054 1.85227 45.4668 1.51136 47.3702 1.51136C48.98 1.51136 50.481 1.74811 51.873 2.22159C53.2651 2.68561 54.5009 3.34848 55.5804 4.21023C56.6694 5.07197 57.5643 6.0947 58.2651 7.27841C58.9658 8.46212 59.4251 9.76894 59.6429 11.1989H54.2736ZM70.2314 31.4403C68.8488 31.4403 67.6036 31.1941 66.4956 30.7017C65.3971 30.1998 64.5259 29.4612 63.882 28.4858C63.2475 27.5104 62.9303 26.3078 62.9303 24.8778C62.9303 23.6468 63.1575 22.6288 63.6121 21.8239C64.0666 21.0189 64.6869 20.375 65.4729 19.892C66.2589 19.4091 67.1443 19.0445 68.1291 18.7983C69.1234 18.5426 70.1509 18.358 71.2115 18.2443C72.4899 18.1117 73.5269 17.9934 74.3223 17.8892C75.1178 17.7756 75.6954 17.6051 76.0553 17.3778C76.4246 17.1411 76.6092 16.7765 76.6092 16.2841V16.1989C76.6092 15.1288 76.292 14.3002 75.6575 13.7131C75.0231 13.1259 74.1092 12.8324 72.9161 12.8324C71.6566 12.8324 70.6575 13.107 69.9189 13.6562C69.1897 14.2055 68.6973 14.8542 68.4416 15.6023L63.6405 14.9205C64.0193 13.5947 64.6443 12.4867 65.5155 11.5966C66.3867 10.697 67.452 10.0246 68.7115 9.57955C69.971 9.125 71.363 8.89773 72.8876 8.89773C73.9388 8.89773 74.9852 9.02083 76.0269 9.26705C77.0685 9.51326 78.0202 9.92045 78.882 10.4886C79.7437 11.0473 80.435 11.8097 80.9558 12.7756C81.4861 13.7415 81.7513 14.9489 81.7513 16.3977V31H76.8081V28.0028H76.6376C76.3251 28.6089 75.8848 29.1771 75.3166 29.7074C74.7579 30.2282 74.0524 30.6496 73.2001 30.9716C72.3573 31.2841 71.3678 31.4403 70.2314 31.4403ZM71.5666 27.6619C72.5988 27.6619 73.4937 27.4583 74.2513 27.0511C75.0089 26.6345 75.5912 26.0852 75.9984 25.4034C76.4151 24.7216 76.6234 23.9782 76.6234 23.1733V20.6023C76.4625 20.7348 76.1878 20.858 75.7996 20.9716C75.4208 21.0852 74.9947 21.1847 74.5212 21.2699C74.0477 21.3551 73.5789 21.4309 73.1149 21.4972C72.6509 21.5634 72.2484 21.6203 71.9075 21.6676C71.1405 21.7718 70.4539 21.9422 69.8479 22.179C69.2418 22.4157 68.7636 22.7472 68.4132 23.1733C68.0628 23.59 67.8876 24.1297 67.8876 24.7926C67.8876 25.7396 68.2333 26.4545 68.9246 26.9375C69.6159 27.4205 70.4966 27.6619 71.5666 27.6619ZM86.1217 31V9.18182H91.0365V12.8892H91.2922C91.7467 11.6392 92.4996 10.6638 93.5507 9.96307C94.6018 9.25284 95.8566 8.89773 97.3149 8.89773C98.7922 8.89773 100.037 9.25758 101.051 9.97727C102.073 10.6875 102.793 11.6581 103.21 12.8892H103.437C103.92 11.6771 104.734 10.7112 105.88 9.99148C107.036 9.26231 108.404 8.89773 109.985 8.89773C111.993 8.89773 113.631 9.5322 114.9 10.8011C116.169 12.0701 116.804 13.9214 116.804 16.3551V31H111.647V17.1506C111.647 15.7964 111.287 14.8068 110.568 14.1818C109.848 13.5473 108.967 13.2301 107.926 13.2301C106.685 13.2301 105.715 13.6184 105.014 14.3949C104.322 15.1619 103.977 16.161 103.977 17.392V31H98.9342V16.9375C98.9342 15.8106 98.5933 14.911 97.9115 14.2386C97.2392 13.5663 96.3585 13.2301 95.2695 13.2301C94.5308 13.2301 93.8585 13.4195 93.2524 13.7983C92.6464 14.1676 92.1634 14.6932 91.8036 15.375C91.4437 16.0473 91.2638 16.8333 91.2638 17.733V31H86.1217ZM130.879 31.4261C128.692 31.4261 126.803 30.9716 125.212 30.0625C123.63 29.1439 122.413 27.8466 121.561 26.1705C120.709 24.4848 120.283 22.5009 120.283 20.2188C120.283 17.9744 120.709 16.0047 121.561 14.3097C122.423 12.6051 123.625 11.2794 125.169 10.3324C126.713 9.37595 128.526 8.89773 130.609 8.89773C131.954 8.89773 133.223 9.11553 134.416 9.55114C135.619 9.97727 136.679 10.6402 137.598 11.5398C138.526 12.4394 139.255 13.5852 139.786 14.9773C140.316 16.3598 140.581 18.0076 140.581 19.9205V21.4972H122.697V18.0312H135.652C135.643 17.0464 135.429 16.1705 135.013 15.4034C134.596 14.6269 134.014 14.0161 133.266 13.571C132.527 13.1259 131.665 12.9034 130.68 12.9034C129.629 12.9034 128.706 13.1591 127.911 13.6705C127.115 14.1723 126.495 14.8352 126.05 15.6591C125.614 16.4735 125.392 17.3684 125.382 18.3438V21.3693C125.382 22.6383 125.614 23.7273 126.078 24.6364C126.542 25.536 127.191 26.2273 128.024 26.7102C128.857 27.1837 129.833 27.4205 130.95 27.4205C131.698 27.4205 132.375 27.3163 132.982 27.108C133.588 26.8902 134.113 26.5729 134.558 26.1562C135.003 25.7396 135.339 25.2235 135.567 24.608L140.368 25.1477C140.065 26.4167 139.487 27.5246 138.635 28.4716C137.792 29.4091 136.713 30.1383 135.396 30.6591C134.08 31.1705 132.574 31.4261 130.879 31.4261Z" fill="#FAFAFA"/>
</svg>
